<svg xmlns="http://www.w3.org/2000/svg" version="1.1" xmlns:xlink="http://www.w3.org/1999/xlink" xmlns:svgjs="http://svgjs.com/svgjs" width="512" height="512" x="0" y="0" viewBox="0 0 512.002 512.002" style="enable-background:new 0 0 512 512" xml:space="preserve" class=""><g><path xmlns="http://www.w3.org/2000/svg" d="m459.137 90.336c29.707-34.965 3.841-90.736-42.471-90.334-46.307-.403-72.181 55.378-42.469 90.334-31.309 15.646-52.863 48.017-52.863 85.333v27.06c-6.769-6.381-14.46-11.794-22.863-15.993 29.707-34.965 3.841-90.736-42.471-90.334-46.307-.403-72.181 55.378-42.469 90.334-31.309 15.646-52.863 48.017-52.863 85.333v27.06c-6.769-6.381-14.46-11.794-22.863-15.993 29.707-34.965 3.841-90.736-42.471-90.334-46.307-.403-72.181 55.378-42.469 90.334-31.309 15.646-52.863 48.017-52.863 85.333v16.066c0 20.749 13.474 38.408 32.133 44.687v67.78c0 8.284 6.716 15 15 15h96.4c8.284 0 15-6.716 15-15v-67.78c20.224-6.6 33.712-26.964 32.133-48.982.704.276 1.413.541 2.133.783v115.979c0 8.284 6.716 15 15 15h96.4c8.284 0 15-6.716 15-15v-115.98c20.217-6.599 33.707-26.951 32.133-48.963.704.276 1.413.541 2.133.783v164.16c0 8.284 6.716 15 15 15h96.4c8.284 0 15-6.716 15-15v-164.16c18.659-6.279 32.133-23.938 32.133-44.687v-112.486c.001-37.316-21.553-69.687-52.863-85.333zm-363.803 132.466c13.877 0 25.167 11.29 25.167 25.167-1.265 33.341-49.073 33.332-50.333 0 0-13.877 11.289-25.167 25.166-25.167zm65.334 161.733c0 9.447-7.686 17.133-17.133 17.133-8.284 0-15 6.716-15 15v65.333h-66.4v-65.333c0-8.284-6.716-15-15-15-9.447 0-17.133-7.686-17.133-17.133v-16.066c0-36.025 29.309-65.333 65.333-65.333s65.333 29.309 65.333 65.333zm95.333-258.133c13.877 0 25.167 11.29 25.167 25.167-1.265 33.341-49.073 33.332-50.333 0-.001-13.877 11.289-25.167 25.166-25.167zm65.333 209.933c0 9.447-7.686 17.133-17.133 17.133-8.284 0-15 6.716-15 15v113.533h-66.4v-113.533c0-8.284-6.716-15-15-15-9.447 0-17.133-7.686-17.133-17.133v-64.267c3.269-86.528 127.389-86.555 130.667.001-.001 0-.001 64.266-.001 64.266zm95.333-306.333c13.877 0 25.167 11.29 25.167 25.167-1.265 33.341-49.073 33.332-50.333 0 0-13.877 11.289-25.167 25.166-25.167zm65.334 258.153c0 9.447-7.686 17.133-17.133 17.133-8.284 0-15 6.716-15 15v161.714h-66.4v-161.714c0-8.284-6.716-15-15-15-9.447 0-17.133-7.686-17.133-17.133v-112.486c3.261-86.511 127.383-86.57 130.667.001-.001-.001-.001 112.485-.001 112.485z" fill="#000000" data-original="#000000" class=""></path></g></svg>