<svg xmlns="http://www.w3.org/2000/svg" version="1.1" xmlns:xlink="http://www.w3.org/1999/xlink" xmlns:svgjs="http://svgjs.com/svgjs" width="512" height="512" x="0" y="0" viewBox="0 0 510.413 510.413" style="enable-background:new 0 0 512 512" xml:space="preserve" class=""><g><g xmlns="http://www.w3.org/2000/svg"><path id="XMLID_2628_" d="m22.012 255.212c0 128.972 104.213 232.99 232.988 232.99l10.36-232.99-10.36-232.989c-128.587 0-232.988 103.803-232.988 232.989z" fill="#ffffff" data-original="#edf5ff" class=""></path><path id="XMLID_2627_" d="m419.826 90.387c-43.986-43.986-103.017-68.164-164.826-68.164v232.989 232.99c208.103-.001 310.189-252.456 164.826-397.815z" fill="#ffffff" data-original="#d5e8fe" class=""></path><path id="XMLID_2625_" d="m144.081 450.984c12.551-12.551 98.265-98.264 110.919-110.918l9.999-84.854-9.999-84.853c-5.522 5.523-190.249 190.25-195.771 195.773-83.598-147.658 21.291-335.807 195.771-335.795l9.999-15.063-9.999-15.062h.004.004c-.003 0-.005 0-.008 0-140.932 0-255 114.054-255 255 0 140.732 113.935 255.001 255 255.001l9.999-15.063-9.999-15.063c-38.865-.004-77.092-9.953-110.919-29.103z" fill="#000000" data-original="#fd4b49" class=""></path><path id="XMLID_2624_" d="m472.736 122.33c-78.493-128.091-217.161-121.959-217.732-122.118h-.004v30.125c38.863.004 77.095 9.954 110.92 29.104-12.758 12.757-98.077 98.075-110.92 110.918v84.852 84.854c10.808-10.809 184.894-184.894 195.774-195.773 83.761 147.947-21.684 335.807-195.774 335.795v30.125c199.211 0 321.283-218.913 217.736-387.882z" fill="#000000" data-original="#e70b69" class=""></path></g></g></svg>