<svg xmlns="http://www.w3.org/2000/svg" xmlns:xlink="http://www.w3.org/1999/xlink" viewBox="0 0 64 64" fill="#5B5B5B">
  <path d="M12 4C10.897 4 10 4.897 10 6L10 12L8 12C5.457 12 4.0576406 13.449984 4.0566406 16.083984L4.0703125 16.257812C5.0963125 22.068813 7.6225156 34.286906 7.9785156 36.003906C7.6265156 37.746906 5.0943594 50.318812 4.0683594 56.132812L4.0546875 56.306641C4.0546875 58.584641 5.4690469 60 7.7480469 60L56.253906 60C58.600906 60 60 58.505 60 56L59.984375 55.826172C58.959375 50.018172 56.386484 37.736047 56.021484 35.998047C56.381484 34.267047 58.910547 22.064812 59.935547 16.257812L59.949219 16.107422C59.980219 14.791422 59.645172 13.764688 58.951172 13.054688C58.268172 12.353687 57.275 12 56 12L54 12L54 6C54 4.897 53.103 4 52 4L12 4 z M 12 6L52 6L52 12L12 12L12 6 z M 8 14L56 14C56.717 14 57.228484 14.151172 57.521484 14.451172C57.814484 14.751172 57.958172 15.267328 57.951172 15.986328C56.848172 22.219328 54.049484 35.660875 54.021484 35.796875L53.978516 36.001953L54.021484 36.205078C54.050484 36.342078 56.893047 49.846984 57.998047 56.083984C57.970047 57.769984 57.103906 58 56.253906 58L7.7480469 58C6.6040469 58 6.0796875 57.501672 6.0546875 56.388672C7.1606875 50.143672 9.9524687 36.337266 9.9804688 36.197266L10.021484 35.996094L9.9785156 35.796875C9.9505156 35.660875 7.1606406 22.235047 6.0566406 15.998047C6.0756406 14.524047 6.592 14 8 14 z M 45 24L37 26L37 28L42 28L42 36L42 48L45 48L45 36L45 24 z M 23.591797 24.199219C21.438797 24.199219 19.695328 24.817688 18.361328 26.054688C17.027328 27.291688 16.387406 28.7945 16.441406 30.5625L16.472656 30.658203L19.509766 30.658203C19.534766 29.394203 19.907953 28.474344 20.626953 27.777344C21.370953 27.053344 22.358844 26.691406 23.589844 26.691406C24.885844 26.691406 25.865297 27.039328 26.529297 27.736328C27.194297 28.432328 27.525391 29.450063 27.525391 30.789062C27.525391 32.042063 27.233391 33.018703 26.650391 33.720703C26.067391 34.422703 25.073922 34.773438 23.669922 34.773438L20.90625 34.773438L20.90625 36L20.910156 36L20.910156 37.248047L23.673828 37.248047C25.129828 37.248047 26.196094 37.589391 26.871094 38.275391C27.546094 38.961391 27.882812 40.026656 27.882812 41.472656C27.882813 42.897656 27.502188 43.974125 26.742188 44.703125C25.982187 45.432125 24.93275 45.796875 23.59375 45.796875C22.27575 45.796875 21.237422 45.432125 20.482422 44.703125C19.726422 43.975125 19.349609 42.994672 19.349609 41.763672L16.328125 41.763672L16.279297 41.859375C16.226297 43.828375 16.897875 45.390969 18.296875 46.542969C19.694875 47.694969 21.459797 48.269531 23.591797 48.269531C25.765797 48.269531 27.552219 47.6585 28.949219 46.4375C30.346219 45.2155 31.046875 43.540203 31.046875 41.408203C31.046875 40.186203 30.752922 39.083656 30.169922 38.097656C29.606922 37.144656 28.659984 36.438 27.333984 36L27.189453 35.929688C28.357453 35.426688 29.232406 34.696328 29.816406 33.736328C30.400406 32.776328 30.693359 31.816562 30.693359 30.851562C30.693359 28.719562 30.050625 27.079734 28.765625 25.927734C27.479625 24.775734 25.755797 24.199219 23.591797 24.199219 z M 12 52C11.448 52 11 52.447 11 53L11 55C11 55.553 11.448 56 12 56C12.552 56 13 55.553 13 55L13 53C13 52.447 12.552 52 12 52 z M 17 52C16.448 52 16 52.447 16 53L16 55C16 55.553 16.448 56 17 56C17.552 56 18 55.553 18 55L18 53C18 52.447 17.552 52 17 52 z M 22 52C21.448 52 21 52.447 21 53L21 55C21 55.553 21.448 56 22 56C22.552 56 23 55.553 23 55L23 53C23 52.447 22.552 52 22 52 z M 27 52C26.448 52 26 52.447 26 53L26 55C26 55.553 26.448 56 27 56C27.552 56 28 55.553 28 55L28 53C28 52.447 27.552 52 27 52 z M 32 52C31.448 52 31 52.447 31 53L31 55C31 55.553 31.448 56 32 56C32.553 56 33 55.553 33 55L33 53C33 52.447 32.553 52 32 52 z M 37 52C36.447 52 36 52.447 36 53L36 55C36 55.553 36.447 56 37 56C37.553 56 38 55.553 38 55L38 53C38 52.447 37.553 52 37 52 z M 42 52C41.447 52 41 52.447 41 53L41 55C41 55.553 41.447 56 42 56C42.553 56 43 55.553 43 55L43 53C43 52.447 42.553 52 42 52 z M 47 52C46.447 52 46 52.447 46 53L46 55C46 55.553 46.447 56 47 56C47.553 56 48 55.553 48 55L48 53C48 52.447 47.553 52 47 52 z M 52 52C51.447 52 51 52.447 51 53L51 55C51 55.553 51.447 56 52 56C52.553 56 53 55.553 53 55L53 53C53 52.447 52.553 52 52 52 z" fill="#5B5B5B" />
</svg>