<?xml version="1.0" encoding="utf-8"?>
<!-- Generator: Adobe Illustrator 19.1.0, SVG Export Plug-In . SVG Version: 6.00 Build 0)  -->
<svg version="1.1" id="Layer_1" xmlns="http://www.w3.org/2000/svg" xmlns:xlink="http://www.w3.org/1999/xlink" x="0px" y="0px"
	 viewBox="0 0 64 64" enable-background="new 0 0 64 64" xml:space="preserve">
<g id="Personal-Card">
	<path d="M53,27H31c-0.5527096,0-1,0.4472008-1,1c0,0.5527,0.4472904,1,1,1h22c0.5527916,0,1-0.4473,1-1
		C54,27.4472008,53.5527916,27,53,27z"/>
	<path d="M53,35H31c-0.5527096,0-1,0.4472008-1,1c0,0.5527,0.4472904,1,1,1h22c0.5527916,0,1-0.4473,1-1
		C54,35.4472008,53.5527916,35,53,35z"/>
	<path d="M53,43H31c-0.5527096,0-1,0.4472008-1,1c0,0.5527,0.4472904,1,1,1h22c0.5527916,0,1-0.4473,1-1
		C54,43.4472008,53.5527916,43,53,43z"/>
	<path d="M59.9628906,8H4.0371919C1.8074919,8,0,9.8073997,0,12.0370998v39.9255981C0,54.1925011,1.8074919,56,4.0371919,56
		h55.9256973C62.1924896,56,64,54.1925011,64,51.9626999V12.0370998C64,9.8073997,62.1924896,8,59.9628906,8z M62,51.9626999
		C62,53.0861015,61.0861893,54,59.9628906,54H4.0371919C2.9138918,54,2,53.0861015,2,51.9626999V12.0370998
		C2,10.9138002,2.9138918,10,4.0371919,10h55.9256973C61.0861893,10,62,10.9138002,62,12.0370998V51.9626999z"/>
	<path d="M20,16h-8c-2.2091084,0-4,1.7908001-4,4v8c0,2.2091007,1.7908916,4,4,4h8c2.2091923,0,4-1.7908993,4-4v-8
		C24,17.7908001,22.2091923,16,20,16z M22,28c0,1.1026993-0.8972092,2-2,2h-8c-1.1027088,0-2-0.8973007-2-2v-8
		c0-1.1028004,0.8972912-2,2-2h8c1.1027908,0,2,0.8971996,2,2V28z"/>
</g>
<g>
</g>
<g>
</g>
<g>
</g>
<g>
</g>
<g>
</g>
<g>
</g>
<g>
</g>
<g>
</g>
<g>
</g>
<g>
</g>
<g>
</g>
<g>
</g>
<g>
</g>
<g>
</g>
<g>
</g>
</svg>
