<svg xmlns="http://www.w3.org/2000/svg" version="1.1" xmlns:xlink="http://www.w3.org/1999/xlink" xmlns:svgjs="http://svgjs.com/svgjs" width="512" height="512" x="0" y="0" viewBox="0 0 16.933333 16.933334" style="enable-background:new 0 0 512 512" xml:space="preserve" class=""><g><g xmlns="http://www.w3.org/2000/svg" id="layer1"><path id="path7936" d="m1.5879726.52900992c-.58174 0-1.05885.46686002-1.05885 1.05881998v1.5879701c0 .5910199.47711 1.0562299 1.05885 1.0562299h2.2711601l.49299.4945301c-.0777.2625799-.1183299.5413999-.1183299.8293801v.4056499c-.3150801.1829501-.5291701.52514-.5291701.91723 0 .5865299.4774999 1.05883 1.0588501 1.05883h.24184c.18528.3740599.4595799.6887202.8154498.9260101v.3958299c-.01.0003705-.019701.00101-.0289.003-.0276.003-.0573.0113-.0837.023201l-.64285.2997207c-.0942-.0391-.1944799-.06-.3038599-.06h-.2635401v-.26561c-.0005821-.1461201-.1194999-.2640999-.26562-.2635401h-2.11511c-.14611-.0005556-.26503.11742-.26561.2635401v.26509h-.26355c-.44033 0-.79426.3580599-.79426.7932093l-.001 1.52544c-.16074.14455-.26355.35607-.26355.59065 0 .20486.0753.38906.20205.52967-.12683.14003-.20205.32367-.20205.52863 0 .20486.0753.38906.20205.52967-.12683.14004-.20205.32367-.20205.52863 0 .23459.10384.448.26458.59323v.46714c0 .43515.35291.7927.79427.7927h3.17343c.2365402 0 .44884-.10359.5937602-.26458h1.4133399l.1881.1881c.10321.10259.2698901.10259.3731001 0l.18914-.18913h3.0649092c.44393 0 .79323-.35755.79323-.7927v-1.00507c.40976-.0371.79736-.34122 1.02681-.5767l2.07273-1.98069c.14212-.14786.21522-.33246.22634-.5183.65734-.10504 1.19621-.55445 1.37303-1.214359l.27337-1.0211003c.22644-.8450602-.2676-1.71639-1.12292-1.94557.11261-.4203102-.13476-.8583901-.56069-.9725202-.42592-.1141299-.85992.1424101-.97254.5627402l-.47853 1.78899c-.002.007-.0475.1565899-.12867.3493199-.077.1828202-.18103.37969-.28473.4966001-.19723.0001799-.39506.0732-.55242.2118699l-1.27382.9952594c-.27591-.19182-.633469-.402329-.91519-.5379393l-1.4799993-.69244c-.035-.016301-.073-.024799-.1116198-.024799l-.00201-.3973798c.3495199-.22684.63176-.5508702.817-.9255001h.2413294c.5812707 0 1.0588397-.4723 1.0588397-1.0588299 0-.3912-.21475-.73347-.528649-.9167101v-.4061705c0-1.6077499-1.2928201-2.91028-2.9098802-2.91033-.7082901-.00001-1.3513001.24609-1.85362.66248v-1.7202624c.00003-.59102996-.4776202-1.05881998-1.0593601-1.05881998zm2.64427.52966998c.29772 0 .5302102.23659.5301901.52915v2.7987101l-.6061599-.60563c-.0499-.0492-.1174602-.0764-.1875801-.076h-2.3807201c-.28947 0-.52917-.2314202-.52917-.52915v-1.5879701c0-.29256.23143-.52915.52917-.52913zm-2.38021 1.05778c-.14612 0-.26458.11846-.26458.26458s.11846.26457.26458.26457c.14613 0 .26458-.11845.26458-.26457s-.11845-.26458-.26458-.26458zm1.05833 0c-.14613 0-.26458.11846-.26458.26458s.11845.26457.26458.26457c.1461201 0 .2645801-.11845.2645801-.26457s-.11846-.26458-.2645801-.26458zm1.0583301 0c-.1461301 0-.2645801.11846-.2645801.26458s.11845.26457.2645801.26457c.1461199 0 .2645799-.11845.2645799-.26457s-.11846-.26458-.2645799-.26458zm5.5567296 3.4389701-.000502.26406-.2656205.0005291c-.3537998.0005292-.7071498-.2524598-.7994298-.59685-.0426001-.1618898-.2230001-.2441199-.3731001-.1700098-.3075101.1503899-.6089999.2387398-.9415399.2387398-.34906 0-.6360901-.0884-.94361-.2387398-.0394-.0195-.0827-.029-.1266002-.0274-.1158.005-.2150399.0853-.24443.1973998-.0906.3380502-.4478499.5973302-.8015.59735l-.2661301-.0005291v-.2645699c0-.13174.010999-.2610101.0315-.38653l.046.0455c.16686.16592.451.0482.4511299-.1870498v-.9720103c.4390803-.5375601 1.1016004-.8805401 1.8536318-.8805501 1.3155013.00001 2.3815019 1.05691 2.3802009 2.3806601zm5.0265397-1.3218499c-.15416.003-.26458.11693-.26458.2635499v.52915c0 .1763299.13233.2648601.26458.26509.13225-.0002299.26459-.0888.26459-.26509v-.52915c0-.1466199-.11042-.26068-.26459-.2635499zm-1.62056.8712398.37517.3730901c.26106.2427599.61656-.1230101.37517-.3730901l-.37517-.3751598c-.0498-.0512-.11408-.077-.18552-.076995-.23918-.00201-.35477.2883748-.18965.4521548zm2.86596-.3751499-.37517.3751601c-.24139.25009.11411.61586.37517.3731001l.37517-.3731001c.16512-.16378.0495-.4540001-.18965-.452155-.0714-.0000051-.13571.025795-.18552.076995zm-9.5709392.91154c.2807999.1064101.55992.1798299.9188001.1798299.2895197 0 .6199499-.0569.9167399-.1793198.1945699.3505899.53799.59596.9342999.68056v.5730801c0 1.0200097-.82945 1.8354998-1.8510398 1.8354998-1.0318102 0-1.8536201-.8278998-1.8536201-1.8354998v-.5730801c.3908798-.0794.75359-.3401402.93482-.6810701zm-1.46194 1.2541502c0 .1763799.017899.3471299.0548.5126198h-.0558c-.29538 0-.5291701-.2404999-.5291701-.5296699 0-.28918.2337901-.52916.5291651-.52916zm4.7609395-.5462101c.29513.000291.5291707.2401498.5291707.52916 0 .28917-.2343097.5291598-.5296797.5291598h-.0558c.0366-.1651598.0563-.3359898.0563-.5121097zm5.0038097.2731598c.13533.0363.2267.1785199.18758.3245199l-.2067.76893c-.0256.0966.005.19929.0801.2656099 0 0 .0706.0647.13487.21135.0535.12207.11025.35297.0227.6795201-.0912.34115.42095.4780899.51211.1369401.1179-.4401301.0509-.8000002-.0548-1.0412402-.0559-.1273098-.10448-.1988198-.14728-.2511398l.032-.1214401c.57076.15293.89945.7304101.74776 1.29652l-.27337 1.0216203c-.12541.4680399-.52197.7826989-1.01544.8350589-.0227-.0304-.0452-.0612-.0729-.0889l-1.12292-1.1228988c-.0117-.0117-.0251-.019801-.0372-.0305.10668-.15813.19389-.3363399.25838-.4893598.0949-.22523.15141-.41495.15141-.41495l.47956-1.7920904c.0293-.1094901.12064-.1803601.221755-.193665.03376-.00389.06856-.00289.102385.00611zm-8.1793093 2.5033401c.2489901.0878.5161901.13539.7953002.13539.2790499 0 .54312-.0475.7916799-.1348698l.0005291.5539499c-.21229.21286-.4245599.4253799-.6371698.6381899h-.3105793l-.6397601-.6407698zm-3.9692401.39945h1.5880101v.79269h-1.5880101zm10.5972294.38708 1.12499 1.124969c.0939.0939.10499.25887-.009.37722l-2.06343 1.97192c-.29069.29043-.55448.44317-.81545.42993-.24792-.0126-.48739-.19903-.72553-.43717-.24764-.24557-.6245397.11942-.37517.37465.27222.27513.50817.4323.73277.5183v1.07328c0 .14238-.1124.26561-.26355.26561l-2.5383393-.001.0791-.078c.0599-.0591.0881-.1431.076-.22633l-.50849-3.57074.2490798-.24442.0739.0739c.1120301.11198.29669.1011.3948001-.0233l1.0195797-1.27379.40204.1881c.2878897.138681.7962997.44728.9823597.59736.0952.0772.23101.079.32814.004l1.44435-1.1290991c.0672-.059.14181-.0866.21091-.088345.06907-.00196.1315.023455.18094.072955zm-7.2129593-.0689.7394901.73895-.3973902.397379-.5518999-.689859c-.004-.11132-.031-.21624-.0765-.3115998zm2.7579601.00101.41134.19223-.7549901.944099-.3973899-.397369zm-6.9349402.2098h.26354v.52966c.00059.146119.1195.264099.26562.263539h2.11511c.1461101.000556.26503-.11742.2656102-.263539v-.52915h.2635499c.1511501 0 .2661301.11239.2661301.26354v5.293059c0 .14385-.11498.26355-.2661301.26355h-3.1734301c-.14082 0-.26488-.11239-.26459-.26355l-.00051-.26509h.52813c.43518 0 .79478-.35426.79478-.79527 0-.20497-.0757-.3886-.20257-.52864.12672-.14061.20257-.3248.20257-.52967 0-.28346-.1452-.52868-.3669-.66867.0656-.11541.10232-.24704.10232-.38963 0-.44101-.3596-.79269-.79478-.79269h-.26355v-1.323399c0-.14495.11394-.26406.2651-.26405zm5.4006701.793719h.3105801l.26768.26819-.4216799.4134-.4190903-.41908zm-1.4319401.28938.3234902.4041c.098.12284.2808999.13368.3927398.0233l.0801-.0801.2304698.23357-.49609 3.587791c-.0126.0829.014801.16686.0739.226329l.078.078h-.6826397zm1.50119 1.01541c.0546.0189.1061501.0189.1555401.004l.44235 3.0964-.5126299.51158-.5131401-.51158zm-5.73451.0181h.26304c.15117 0 .26561.11968.26561.26355 0 .14386-.11444.2656-.26561.2656h-.26304c-.15117 0-.26561-.12174-.26561-.26561 0-.14386.11444-.26354.26561-.26354zm.52762 1.05831c.15117-.00001.26561.11967.26561.26354 0 .14386-.11444.26561-.26561.26561h-.52762c-.15117 0-.26561-.12175-.26561-.26561 0-.14332.11399-.26213.2651-.26303.17699.00005.35202-.000502.52813-.000502zm-.52917 1.05882h.002.5286503c.15111.0009.26458.1197.26458.26302 0 .14387-.11444.26561-.26561.26561h-.5276203c-.15117 0-.26561-.12174-.26561-.26561 0-.14332.11373-.26213.26406-.26302z" font-variant-ligatures="normal" font-variant-position="normal" font-variant-caps="normal" font-variant-numeric="normal" font-variant-alternates="normal" font-feature-settings="normal" text-indent="0" text-align="start" text-decoration-line="none" text-decoration-style="solid" text-decoration-color="rgb(0,0,0)" text-transform="none" text-orientation="mixed" white-space="normal" shape-padding="0" isolation="auto" mix-blend-mode="normal" solid-color="rgb(0,0,0)" solid-opacity="1" vector-effect="none" fill="#000000" data-original="#000000"></path></g></g></svg>