<svg xmlns="http://www.w3.org/2000/svg" version="1.1" xmlns:xlink="http://www.w3.org/1999/xlink" xmlns:svgjs="http://svgjs.com/svgjs" width="512" height="512" x="0" y="0" viewBox="0 0 24 24" style="enable-background:new 0 0 512 512" xml:space="preserve"><g><path xmlns="http://www.w3.org/2000/svg" d="m1.5 18c-.276 0-.5-.224-.5-.5v-15c0-1.378 1.122-2.5 2.5-2.5h6c.276 0 .5.224.5.5s-.224.5-.5.5h-6c-.827 0-1.5.673-1.5 1.5v15c0 .276-.224.5-.5.5z" fill="#000000" data-original="#000000"></path><path xmlns="http://www.w3.org/2000/svg" d="m18.5 20h-6c-.276 0-.5-.224-.5-.5s.224-.5.5-.5h5.5v-3h-14.5c-.827 0-1.5.673-1.5 1.5s.673 1.5 1.5 1.5h4c.276 0 .5.224.5.5s-.224.5-.5.5h-4c-1.378 0-2.5-1.122-2.5-2.5s1.122-2.5 2.5-2.5h15c.276 0 .5.224.5.5v4c0 .276-.224.5-.5.5z" fill="#000000" data-original="#000000"></path><path xmlns="http://www.w3.org/2000/svg" d="m12.5 24c-.111 0-.222-.037-.313-.109l-2.187-1.751-2.188 1.75c-.15.12-.355.143-.529.06-.173-.083-.283-.258-.283-.45v-6c0-.276.224-.5.5-.5s.5.224.5.5v4.959l1.688-1.35c.183-.146.442-.146.625 0l1.687 1.35v-4.959c0-.276.224-.5.5-.5s.5.224.5.5v6c0 .192-.11.367-.283.451-.069.033-.143.049-.217.049z" fill="#000000" data-original="#000000"></path><path xmlns="http://www.w3.org/2000/svg" d="m14.5 18h-9c-.276 0-.5-.224-.5-.5s.224-.5.5-.5h9c.276 0 .5.224.5.5s-.224.5-.5.5z" fill="#000000" data-original="#000000"></path><path xmlns="http://www.w3.org/2000/svg" d="m16.5 13c-3.584 0-6.5-2.916-6.5-6.5s2.916-6.5 6.5-6.5 6.5 2.916 6.5 6.5-2.916 6.5-6.5 6.5zm0-12c-3.033 0-5.5 2.467-5.5 5.5s2.467 5.5 5.5 5.5 5.5-2.467 5.5-5.5-2.467-5.5-5.5-5.5z" fill="#000000" data-original="#000000"></path><path xmlns="http://www.w3.org/2000/svg" d="m18.5 9.5c-.128 0-.256-.049-.354-.146l-2-2c-.093-.094-.146-.221-.146-.354v-3.5c0-.276.224-.5.5-.5s.5.224.5.5v3.293l1.854 1.854c.195.195.195.512 0 .707-.098.097-.226.146-.354.146z" fill="#000000" data-original="#000000"></path></g></svg>