<svg xmlns="http://www.w3.org/2000/svg" version="1.1" xmlns:xlink="http://www.w3.org/1999/xlink" xmlns:svgjs="http://svgjs.com/svgjs" width="512" height="512" x="0" y="0" viewBox="0 0 60 60" style="enable-background:new 0 0 512 512" xml:space="preserve" class=""><g><path xmlns="http://www.w3.org/2000/svg" d="M55,4H53V3a3,3,0,0,0-6,0V4H43V3a3,3,0,0,0-6,0V4H33V3a3,3,0,0,0-6,0V4H23V3a3,3,0,0,0-6,0V4H13V3A3,3,0,0,0,7,3V4H5A5.006,5.006,0,0,0,0,9V47a5.006,5.006,0,0,0,5,5H9v2a2,2,0,0,0-2,2v2a2,2,0,0,0,2,2H51a2,2,0,0,0,2-2V56a2,2,0,0,0-2-2V52h4a5.006,5.006,0,0,0,5-5V9A5.006,5.006,0,0,0,55,4ZM49,3a1,1,0,0,1,2,0V7a1,1,0,0,1-2,0ZM39,3a1,1,0,0,1,2,0V7a1,1,0,0,1-2,0ZM29,3a1,1,0,0,1,2,0V7a1,1,0,0,1-2,0ZM19,3a1,1,0,0,1,2,0V7a1,1,0,0,1-2,0ZM9,3a1,1,0,0,1,2,0V7A1,1,0,0,1,9,7ZM5,6H7V7a3,3,0,0,0,6,0V6h4V7a3,3,0,0,0,6,0V6h4V7a3,3,0,0,0,6,0V6h4V7a3,3,0,0,0,6,0V6h4V7a3,3,0,0,0,6,0V6h2a3,3,0,0,1,3,3v3H2V9A3,3,0,0,1,5,6ZM21,23.759a5.319,5.319,0,0,1,1-2.5,5.123,5.123,0,0,1,1,2.62,1.172,1.172,0,0,1-.382.88.929.929,0,0,1-.733.234A1.171,1.171,0,0,1,21,23.759ZM41,33a2,2,0,0,1,2,2v.112a4.515,4.515,0,0,0-1.985,1.128,2.248,2.248,0,0,1-3.37,0,4.213,4.213,0,0,0-5.971,0,2.242,2.242,0,0,1-3.363,0,4.206,4.206,0,0,0-5.966,0,2.241,2.241,0,0,1-3.362,0A4.517,4.517,0,0,0,17,35.112V35a2,2,0,0,1,2-2ZM29,22.759a5.319,5.319,0,0,1,1-2.5,5.123,5.123,0,0,1,1,2.62,1.172,1.172,0,0,1-.382.88.941.941,0,0,1-.733.234A1.171,1.171,0,0,1,29,22.759Zm8,1a5.319,5.319,0,0,1,1-2.5,5.123,5.123,0,0,1,1,2.62,1.172,1.172,0,0,1-.382.88.93.93,0,0,1-.733.234A1.171,1.171,0,0,1,37,23.759ZM17,37.248a4.392,4.392,0,0,1,.681.511,4.206,4.206,0,0,0,5.966,0,2.24,2.24,0,0,1,3.361,0,4.208,4.208,0,0,0,5.967,0,2.247,2.247,0,0,1,3.369,0,4.214,4.214,0,0,0,5.971,0A4.417,4.417,0,0,1,43,37.247V41H17ZM16,43H47a2,2,0,0,1,2,2v.066a6.74,6.74,0,0,0-2.85,1.077,5.075,5.075,0,0,1-5.644,0,7.056,7.056,0,0,0-7.7,0,5.062,5.062,0,0,1-5.636,0A6.591,6.591,0,0,0,23.324,45a6.589,6.589,0,0,0-3.845,1.143A4.647,4.647,0,0,1,16.663,47a4.649,4.649,0,0,1-2.816-.857A6.744,6.744,0,0,0,11,45.066V45a2,2,0,0,1,2-2ZM51,58H9V56H51ZM11,54V47.084a5.035,5.035,0,0,1,1.817.773A6.593,6.593,0,0,0,16.663,49a6.593,6.593,0,0,0,3.846-1.143A4.65,4.65,0,0,1,23.324,47a4.652,4.652,0,0,1,2.817.857,7.045,7.045,0,0,0,7.694,0,5.073,5.073,0,0,1,5.643,0,7.057,7.057,0,0,0,7.7,0A5.065,5.065,0,0,1,49,47.084V54Zm44-4H51V45a4,4,0,0,0-4-4H45V35a4,4,0,0,0-4-4H39V26.821a2.988,2.988,0,0,0,.944-.564A3.173,3.173,0,0,0,41,23.879a7.434,7.434,0,0,0-1.686-4.22,1.686,1.686,0,0,0-2.631.005,7.668,7.668,0,0,0-1.677,4A3.224,3.224,0,0,0,37,26.809V31H31V25.821a2.988,2.988,0,0,0,.944-.564A3.173,3.173,0,0,0,33,22.879a7.434,7.434,0,0,0-1.686-4.22,1.686,1.686,0,0,0-2.631.005,7.668,7.668,0,0,0-1.677,4A3.224,3.224,0,0,0,29,25.809V31H23V26.821a2.988,2.988,0,0,0,.944-.564A3.173,3.173,0,0,0,25,23.879a7.434,7.434,0,0,0-1.686-4.22,1.686,1.686,0,0,0-2.631.005,7.668,7.668,0,0,0-1.677,4A3.224,3.224,0,0,0,21,26.809V31H19a4,4,0,0,0-4,4v6H13a4,4,0,0,0-4,4v5H5a3,3,0,0,1-3-3V14H58V47A3,3,0,0,1,55,50Z" fill="#000000" data-original="#000000" class=""></path></g></svg>