<svg xmlns="http://www.w3.org/2000/svg" version="1.1" xmlns:xlink="http://www.w3.org/1999/xlink" xmlns:svgjs="http://svgjs.com/svgjs" width="512" height="512" x="0" y="0" viewBox="0 0 456.00333 456" style="enable-background:new 0 0 512 512" xml:space="preserve" class=""><g><path xmlns="http://www.w3.org/2000/svg" d="m91.417969 167.921875c21.117187-.023437 38.226562-17.136719 38.253906-38.25v-28.101563c.140625-13.757812-7.121094-26.53125-19.011719-33.453124-11.894531-6.917969-26.585937-6.917969-38.480468 0-11.890626 6.921874-19.148438 19.695312-19.007813 33.453124v28.101563c.023437 21.113281 17.132813 38.222656 38.246094 38.25zm0 0" fill="#000000" data-original="#000000" class=""></path><path xmlns="http://www.w3.org/2000/svg" d="m92.054688 220.425781h.507812l4.664062-14.894531h-9.835937zm0 0" fill="#000000" data-original="#000000" class=""></path><path xmlns="http://www.w3.org/2000/svg" d="m145.984375 204.144531h-6.136719l-16.65625 58.707031c-.773437 2.722657-3.105468 4.710938-5.917968 5.042969-2.808594.328125-5.542969-1.0625-6.925782-3.53125l-16.761718-29.9375h-2.417969l-15.402344 29.730469c-.152344.296875-.324219.578125-.519531.847656-1.578125 2.214844-4.292969 3.316406-6.96875 2.820313-2.671875-.492188-4.820313-2.488281-5.503906-5.121094l-15.269532-58.558594h-7.476562c-11.316406 0-22.105469 4.789063-29.695313 13.183594-7.585937 8.390625-11.269531 19.605469-10.128906 30.867187.023437.234376.035156.46875.035156.703126v93.753906h185.515625v-93.75c0-.238282.011719-.472656.035156-.707032 1.140626-11.257812-2.539062-22.46875-10.121093-30.863281-7.585938-8.394531-18.371094-13.183593-29.683594-13.183593zm0 0" fill="#000000" data-original="#000000" class=""></path><path xmlns="http://www.w3.org/2000/svg" d="m398.003906 160c-32.03125 0-58 25.96875-58 58 0 32.035156 25.96875 58 58 58s58-25.964844 58-58c-.035156-32.015625-25.984375-57.960938-58-58zm19.675782 67.777344c2.734374 2.730468 2.734374 7.164062 0 9.898437-2.734376 2.734375-7.167969 2.734375-9.902344 0l-9.773438-9.773437-9.773437 9.773437c-2.734375 2.734375-7.167969 2.734375-9.902344 0s-2.734375-7.167969 0-9.898437l9.773437-9.777344-9.773437-9.773438c-2.734375-2.734374-2.734375-7.164062 0-9.898437s7.167969-2.734375 9.902344 0l9.773437 9.773437 9.773438-9.773437c2.734375-2.734375 7.167968-2.734375 9.898437 0 2.734375 2.734375 2.734375 7.164063 0 9.898437l-9.773437 9.773438zm0 0" fill="#000000" data-original="#000000" class=""></path><path xmlns="http://www.w3.org/2000/svg" d="m398.003906 0c-32.03125 0-58 25.96875-58 58 0 32.035156 25.96875 58 58 58s58-25.964844 58-58c-.035156-32.015625-25.984375-57.9609375-58-58zm29.097656 48.554688-31.898437 29.21875c-2.84375 2.605468-7.257813 2.417968-9.875-.414063l-16.847656-18.269531c-2.519531-2.855469-2.296875-7.199219.503906-9.78125 2.796875-2.578125 7.148437-2.449219 9.785156.292968l12.121094 13.140626 26.757813-24.507813c2.859374-2.53125 7.21875-2.300781 9.796874.511719 2.578126 2.816406 2.425782 7.179687-.34375 9.808594zm0 0" fill="#000000" data-original="#000000" class=""></path><path xmlns="http://www.w3.org/2000/svg" d="m398.003906 320c-32.03125 0-58 25.96875-58 58 0 32.035156 25.96875 58 58 58s58-25.964844 58-58c-.035156-32.015625-25.984375-57.960938-58-58zm29.097656 48.554688-31.898437 29.21875c-2.84375 2.605468-7.257813 2.417968-9.875-.414063l-16.847656-18.269531c-2.578125-2.847656-2.378907-7.242188.445312-9.84375 2.820313-2.605469 7.21875-2.449219 9.847657.351562l12.117187 13.140625 26.757813-24.507812c2.851562-2.613281 7.28125-2.417969 9.890624.433593 2.613282 2.851563 2.417969 7.277344-.433593 9.890626zm0 0" fill="#000000" data-original="#000000" class=""></path><path xmlns="http://www.w3.org/2000/svg" d="m283.804688 56.320312v154.664063h-46.945313l19.109375-19.105469c2.734375-2.734375 2.734375-7.167968 0-9.902344-2.734375-2.734374-7.167969-2.734374-9.902344 0l-30 30c-2.730468 2.734376-2.730468 7.167969 0 9.902344l30 30c2.734375 2.734375 7.167969 2.734375 9.902344 0s2.734375-7.167968 0-9.902344l-16.992188-16.992187h44.828126v154.667969c0 3.867187 3.132812 7 7 7h43.519531v-14h-36.519531v-147.667969h32.960937v-14h-32.960937v-147.664063h36.519531v-14h-43.519531c-3.867188 0-7 3.132813-7 7zm0 0" fill="#000000" data-original="#000000" class=""></path></g></svg>