<svg xmlns="http://www.w3.org/2000/svg" version="1.1" xmlns:xlink="http://www.w3.org/1999/xlink" xmlns:svgjs="http://svgjs.com/svgjs" width="512" height="512" x="0" y="0" viewBox="0 0 24 24" style="enable-background:new 0 0 512 512" xml:space="preserve" class=""><g><g xmlns="http://www.w3.org/2000/svg" id="Layer_24" data-name="Layer 24"><path d="m23 11v7.2a2.91 2.91 0 0 1 -3 2.8h-16a2.91 2.91 0 0 1 -3-2.8v-7.2a1 1 0 0 1 2 0v7.2a.93.93 0 0 0 1 .8h16a.93.93 0 0 0 1-.8v-7.2a1 1 0 0 1 2 0zm-13.41-3.17 1.41-1.42v8.59a1 1 0 0 0 2 0v-8.59l1.41 1.42a1 1 0 0 0 1.42 0 1 1 0 0 0 .29-.71 1 1 0 0 0 -.29-.71l-3.12-3.12a1 1 0 0 0 -.64-.29h-.19a1 1 0 0 0 -.54.24h-.05l-3.12 3.17a1 1 0 1 0 1.42 1.42z" fill="#000000" data-original="#000000" class=""></path></g></g></svg>