<svg xmlns="http://www.w3.org/2000/svg" version="1.1" xmlns:xlink="http://www.w3.org/1999/xlink" xmlns:svgjs="http://svgjs.com/svgjs" width="512" height="512" x="0" y="0" viewBox="0 0 496.631 496.631" style="enable-background:new 0 0 512 512" xml:space="preserve" class=""><g><g xmlns="http://www.w3.org/2000/svg"><g><path d="m294.992 244.217c15.377-13.189 25.165-32.708 25.165-54.504 0-39.617-32.224-71.842-71.842-71.842s-71.842 32.224-71.842 71.842c0 21.795 9.788 41.321 25.165 54.504-35.927 12.328-65.423 38.618-80.341 73.828-5.608 13.239-4.193 28.321 3.778 40.359 8.443 12.743 22.858 20.356 38.561 20.356h169.357c15.704 0 30.125-7.607 38.561-20.356 7.971-12.039 9.386-27.12 3.778-40.359-14.916-35.211-44.413-61.494-80.34-73.828zm-93.373-54.504c0-25.749 20.953-46.696 46.696-46.696s46.696 20.953 46.696 46.696-20.947 46.696-46.696 46.696-46.696-20.947-46.696-46.696zm148.977 154.804c-3.772 5.696-10.354 9.096-17.602 9.096h-169.357c-7.248 0-13.83-3.401-17.602-9.096-3.351-5.061-3.929-11.133-1.584-16.659 17.061-40.277 57.835-66.297 103.865-66.297s86.803 26.026 103.859 66.297c2.35 5.526 1.766 11.605-1.579 16.659z" fill="#000000" data-original="#000000" class=""></path><path d="m484.058 236.409h-17.269c-6.224-110.856-95.133-199.96-205.901-206.517v-17.319c0-6.94-5.633-12.573-12.573-12.573s-12.573 5.633-12.573 12.573v17.237c-111.031 6.048-200.324 95.039-206.893 205.932h-16.276c-6.94 0-12.573 5.633-12.573 12.573s5.633 12.573 12.573 12.573h16.194c6.066 111.384 95.592 200.909 206.976 206.976v16.194c0 6.94 5.633 12.573 12.573 12.573s12.573-5.633 12.573-12.573v-16.276c110.673-6.551 199.514-95.504 205.875-206.221h17.294c6.94 0 12.573-5.633 12.573-12.573s-5.633-12.579-12.573-12.579zm-223.17 206.158v-17.445c0-6.94-5.633-12.573-12.573-12.573s-12.573 5.633-12.573 12.573v17.527c-97.509-6.004-175.757-84.251-181.761-181.761h17.527c6.94 0 12.573-5.633 12.573-12.573s-5.633-12.573-12.573-12.573h-17.444c6.494-97.019 84.521-174.732 181.679-180.717v16.483c0 6.94 5.633 12.573 12.573 12.573s12.573-5.633 12.573-12.573v-16.401c96.893 6.488 174.531 84.32 180.692 181.308h-16.458c-6.94 0-12.573 5.633-12.573 12.573s5.633 12.573 12.573 12.573h16.433c-6.3 96.843-83.869 174.525-180.668 181.006z" fill="#000000" data-original="#000000" class=""></path></g></g></g></svg>