<svg xmlns="http://www.w3.org/2000/svg" version="1.1" xmlns:xlink="http://www.w3.org/1999/xlink" xmlns:svgjs="http://svgjs.com/svgjs" width="512" height="512" x="0" y="0" viewBox="0 0 512 512" style="enable-background:new 0 0 512 512" xml:space="preserve" class="hovered-paths"><g><g xmlns="http://www.w3.org/2000/svg"><g><path d="m149.214 107.198c29.555 0 53.599-24.044 53.599-53.599s-24.044-53.599-53.599-53.599-53.599 24.044-53.599 53.599 24.045 53.599 53.599 53.599zm0-92.207c21.289 0 38.609 17.32 38.609 38.609s-17.32 38.609-38.609 38.609-38.609-17.32-38.609-38.609 17.32-38.609 38.609-38.609z" fill="#000000" data-original="#000000" class="hovered-path"></path><path d="m227.047 288.591c6.427-5.211 10.307-13.1 10.307-21.672v-65.617c0-44.981-36.594-81.575-81.574-81.575h-13.131c-44.981 0-81.575 36.594-81.575 81.575 0 4.14 3.356 7.495 7.495 7.495 4.14 0 7.495-3.355 7.495-7.495 0-36.714 29.869-66.584 66.584-66.584h13.131c36.714 0 66.584 29.87 66.584 66.584v65.617c0 4.086-1.911 7.831-5.053 10.227-8.175 6.306-20.795.089-20.795-10.227 0-.073 0-81.642 0-81.642 0-4.14-3.356-7.495-7.495-7.495s-7.495 3.355-7.495 7.495v81.642c0 15.392 12.522 27.914 27.915 27.914 1.302 0 2.575-.114 3.83-.288l38.84 78.776c1.563 3.169 1.388 6.708-.478 9.708-1.866 3.001-4.963 4.722-8.496 4.722h-46.763c-4.139 0-7.495 3.355-7.495 7.495v85.223c0 8.869-7.216 16.085-16.085 16.085s-16.084-7.215-16.084-16.085v-86.686c0-4.14-3.356-7.495-7.495-7.495s-7.495 3.355-7.495 7.495v86.686c0 8.869-7.216 16.085-16.085 16.085s-16.085-7.215-16.085-16.085v-85.223c0-4.14-3.356-7.495-7.495-7.495h-46.762c-3.533 0-6.63-1.721-8.496-4.722-1.866-3-2.04-6.539-.478-9.708l38.833-78.762c1.255.174 2.534.273 3.837.273 15.392 0 27.915-12.522 27.915-27.914v-81.642c0-4.14-3.356-7.495-7.495-7.495s-7.495 3.355-7.495 7.495v81.642c0 7.126-5.798 12.924-12.925 12.924-1.69 0-3.298-.342-4.778-.937-.003.011-.008.021-.011.032-.062-.028-.12-.061-.182-.087-4.831-2.017-7.954-6.7-7.954-11.931v-30.612c0-4.14-3.356-7.495-7.495-7.495s-7.495 3.355-7.495 7.495v30.612c0 8.572 3.88 16.461 10.307 21.672l-38.508 78.102c-3.847 7.801-3.401 16.867 1.193 24.253s12.528 11.795 21.225 11.795h39.267v77.728c0 17.135 13.94 31.075 31.075 31.075 9.421 0 17.876-4.214 23.58-10.856 5.703 6.642 14.159 10.856 23.58 10.856 17.135 0 31.075-13.94 31.075-31.075v-77.728h39.267c8.698 0 16.632-4.409 21.225-11.795 4.594-7.386 5.04-16.453 1.194-24.253z" fill="#000000" data-original="#000000" class="hovered-path"></path><path d="m378.447 107.198c29.555 0 53.599-24.044 53.599-53.599s-24.044-53.599-53.599-53.599-53.599 24.044-53.599 53.599 24.044 53.599 53.599 53.599zm0-92.207c21.288 0 38.609 17.32 38.609 38.609s-17.32 38.609-38.609 38.609-38.609-17.32-38.609-38.609 17.32-38.609 38.609-38.609z" fill="#000000" data-original="#000000" class="hovered-path"></path><path d="m396.211 119.728h-35.528c-47.152 0-85.514 38.362-85.514 85.514v69.106c0 15.536 12.281 28.258 27.645 28.969v30.74c0 4.14 3.355 7.495 7.495 7.495s7.495-3.355 7.495-7.495v-34.128c9.135-4.887 15.366-14.516 15.366-25.58v-62.809c0-4.14-3.355-7.495-7.495-7.495s-7.495 3.355-7.495 7.495v62.809c0 7.619-6.397 14.01-14.011 14.01-7.724 0-14.009-6.285-14.009-14.01v-69.106c0-38.887 31.636-70.523 70.523-70.523h35.528c38.887 0 70.523 31.636 70.523 70.523v69.106c0 7.725-6.285 14.01-14.011 14.01-7.584 0-14.01-6.256-14.01-14.012 0-.47 0-62.807 0-62.807 0-4.14-3.355-7.495-7.495-7.495s-7.495 3.355-7.495 7.495v62.809c0 11.065 6.231 20.698 15.366 25.586v181.449c0 8.617-7.01 15.627-15.628 15.627-8.617 0-15.627-7.01-15.627-15.627v-108.699c0-16.205-13.183-29.388-29.388-29.388s-29.388 13.183-29.388 29.388v108.698c0 8.617-7.01 15.627-15.627 15.627s-15.627-7.01-15.627-15.627v-113.348c0-4.14-3.355-7.495-7.495-7.495s-7.495 3.355-7.495 7.495v113.348c0 16.883 13.735 30.617 30.617 30.617 16.883 0 30.618-13.735 30.618-30.617v-108.698c0-7.938 6.459-14.397 14.397-14.397s14.397 6.459 14.397 14.397v108.698c0 16.883 13.735 30.617 30.618 30.617s30.618-13.735 30.618-30.617c0 0 0-178.016 0-178.063.011.153 7.624-1.494 8.231-1.681 3.944-1.211 7.516-3.526 10.522-6.421 5.64-5.432 8.892-13.039 8.892-20.872v-69.106c.001-47.151-38.361-85.512-85.513-85.512z" fill="#000000" data-original="#000000" class="hovered-path"></path></g></g></g></svg>