<svg xmlns="http://www.w3.org/2000/svg" version="1.1" xmlns:xlink="http://www.w3.org/1999/xlink" xmlns:svgjs="http://svgjs.com/svgjs" width="512" height="512" x="0" y="0" viewBox="0 0 6.82666 6.82666" style="enable-background:new 0 0 512 512" xml:space="preserve" class=""><g><g xmlns="http://www.w3.org/2000/svg" id="Layer_x0020_1"><g id="_462080952"><path id="_462082512" d="m3.12175 6.53844c-.0219685 0-.0436378-.0100669-.0576811-.0290748l-.909925-1.23259c-.0155394-.020874-.0184016-.0485748-.00758661-.072185l.196839-.430492-.322646-.182138c-.0304685-.0171457-.0440276-.0537953-.0321063-.0865906l.204528-.564307c.0134173-.0371457.0545157-.0564016.0915394-.0428583.0371575.0134173.0564055.0545394.0429882.091689l-.183843.507268.327008.1845c.0324291.0183858.045437.0582717.0299055.092063l-.206461.451988.884965 1.19867c.0234843.0318071.0167441.0766575-.0150591.100138-.0127756.00944094-.0277087.0139173-.0424646.0139173z" fill="#000000" data-original="#000000" class=""></path><path id="_462081792" d="m4.22538 1.16231c.0125197 0 .0250669.00323228.036252.0098189.0253543.0149094.0390079.0437323.0344134.0728031-.00843701.0540433.0137913.0913189.0572717.157783.044874.0687047.10076.154063.107472.284764.00907874.172319.0274606.371602.0408701.505906.223535-.298177.32961-.856516.197791-1.16252-.0654409-.152327-.177165-.217421-.341913-.199161-.026937.00298425-.0532913-.00944094-.0680827-.0322992-.115402-.179528-.369118-.311846-.678598-.353713-.321374-.0436102-.651634.0127953-.905835.154681-.244606.136535-.405398.346252-.464906.606417-.0608661.266118-.0197598.581815.122004.940748.0862205-.372976.209594-.606295.382035-.726433.190976-.133067.406764-.111323.63537-.0882165.262673.0265866.53435.0539252.801724-.155421.0129331-.0100669.0284409-.0151575.0441299-.0151614zm-1.83753 1.29409c-.0271732 0-.0525709-.0156535-.0644921-.040752-.227461-.475098-.302402-.892539-.222768-1.24079.0687126-.300665.253705-.542555.534724-.699472.280697-.156669.643319-.219161.994807-.171579.335843.0455984.607902.184004.755.382413.204161-.00820079.361791.0929331.445783.288114.173331.402413-.00348425 1.15457-.337567 1.43721-.0202283.0170157-.0480787.0216181-.0726772.0119291-.0244843-.00969291-.041752-.0321811-.0447323-.0583937-.0003189-.00373228-.0426063-.375209-.0580197-.670157-.00481102-.092063-.0434843-.151323-.0843583-.213941-.0238307-.0363976-.0494409-.0755354-.0655984-.120638-.278748.16785-.55548.139898-.802835.114925-.210209-.0212441-.391736-.0395079-.539083.0632402-.168933.117776-.289232.398563-.36763.858252-.00520079.030811-.029815.0545394-.060626.0588858-.00333465.00049606-.00670866.00074803-.00992913.00074803z" fill="#000000" data-original="#000000" class=""></path><path id="_462082176" d="m5.6677 6.53844h-4.50872c-.0394685 0-.0715748-.0320551-.0715748-.071563l.00001181-1.25433c0-.731031.585661-1.32589 1.3055-1.32589h.273122c.0395236 0 .0715276.0320512.0715276.071563.00003543.0395079-.0320512.071563-.071563.071563h-.273079c-.640929 0-1.1624.53063-1.1624 1.18277l.00001181 1.18277h4.36559v-1.18277c0-.652134-.521476-1.18276-1.16243-1.18276h-.273177c-.0395315 0-.0716063-.0320551-.0716063-.071563.00004331-.0395118.032063-.071563.0715748-.071563h.273248c.719823 0 1.30547.594862 1.30547 1.32589l.00004331 1.25433c0 .0395079-.0320984.071563-.071563.071563z" fill="#000000" data-original="#000000" class=""></path><path id="_462082344" d="m3.41331 3.63756c-.506028 0-.946335-.497709-1.09567-1.23867-.00767323-.0386417.0173937-.0764134.0560315-.0842402.0387756-.00782677.0765315.0172717.0843622.0560354.0647756.321409.194559.609772.365638.811783.172736.20413.376567.312094.589642.312094.215189 0 .421677-.109831.597102-.317559.176441-.208724.3065-.504539.36626-.832909.00709055-.0388858.0442244-.0646063.0832441-.0575197.0389094.00708268.0645984.0443543.0575197.0832362-.135913.746437-.590024 1.26775-1.10413 1.26775z" fill="#000000" data-original="#000000" class=""></path><path id="_462081936" d="m2.66616 4.02978c-.00581496 0-.0117087-.00062205-.0175433-.00211417-.0383661-.00969291-.061622-.0485748-.0519331-.0868425.0809331-.322406.0588937-.611886.0260906-.797874-.00682283-.0390079.0191339-.0760354.0581496-.0829882.0390157-.00683858.0760315.0192559.0828622.0581378.0504685.2865.0406299.583063-.0283307.857512-.00818898.0325512-.0373898.0541693-.0692953.0541693z" fill="#000000" data-original="#000000" class=""></path><path id="_462081672" d="m4.16053 4.02978c-.0320354 0-.0612874-.0216181-.0693583-.0541693-.0686811-.273327-.0771496-.561693-.0250984-.85726.00684646-.0388858.0439803-.0649764.0828622-.0580197.0390433.00683465.0649843.0438583.0581496.0828701-.0485709.275563-.0408661.543921.0228583.797622.00958661.0382638-.0136575.0771496-.0519252.0868425-.00581102.00148819-.0117992.00211417-.0174882.00211417z" fill="#000000" data-original="#000000" class=""></path><path id="_462081600" d="m2.95749 1.96242c-.0827402 0-.149972.0672165-.149972.149961.00002756.0826142.0672087.149961.149957.149961.0827638 0 .149957-.0673465.149957-.149961.00000787-.0827441-.0672087-.149961-.149941-.149961zm0 .443043c-.161626 0-.293094-.131571-.293094-.293083.00002756-.161642.131449-.293087.293079-.293087.16165 0 .293083.131449.293083.293087.00000787.161512-.131437.293083-.293067.293083z" fill="#000000" data-original="#000000" class=""></path><path id="_462081528" d="m3.86919 1.96242c-.0827441 0-.149996.0672165-.149996.149961.00004724.0826142.0672165.149961.149957.149961.0826693 0 .149965-.0673465.149965-.149961.00001968-.0827441-.0673465-.149961-.149925-.149961zm0 .443043c-.161634 0-.293122-.131571-.293122-.293083.00004724-.161642.131445-.293087.293083-.293087.161555 0 .292961.131449.292961.293087.00003543.161512-.131445.293083-.292921.293083z" fill="#000000" data-original="#000000" class=""></path><path id="_462081456" d="m3.66193 2.10542c-.0220787 0-.043874-.0101811-.0579094-.029437-.035122-.0483346-.109957-.0795157-.190713-.0795157-.0807244-.00000394-.155669.0311811-.190831.0795157-.023189.0319252-.0679567.0390079-.0998898.0157756-.0320354-.0233583-.0390079-.0680827-.0157795-.100016.062126-.0853543.179531-.138402.3065-.138402.126854-.00000394.244382.0530512.3065.138402.0232441.0319291.0161575.0766614-.0157756.100016-.0126378.00919291-.0274567.0136654-.0421024.0136614z" fill="#000000" data-original="#000000" class=""></path><path id="_462081408" d="m2.73598 2.18394h-.291843c-.0395276 0-.0715906-.0320551-.0715906-.0715591.0000315-.0395118.0320512-.071563.071563-.071563h.29187c.0395276 0 .0715315.0320551.0715315.071563.00002756.0395039-.0320551.0715591-.0715315.0715591z" fill="#000000" data-original="#000000" class=""></path><path id="_462081384" d="m4.4219 2.18394h-.331201c-.0396417 0-.0715827-.0320551-.0715827-.0715591.00001968-.0395118.0319252-.071563.071563-.071563h.33122c.0395276 0 .071437.0320551.071437.071563.00001181.0395039-.031937.0715591-.071437.0715591z" fill="#000000" data-original="#000000" class=""></path><path id="_462081072" d="m2.9225 4.96593c-.0224213 0-.0444173-.0105591-.0584488-.0300669l-.661929-.928819c-.0229803-.0321811-.0154291-.0769055.0167441-.0998898.0322323-.0228583.0769173-.0154094.0997677.0167717l.620969.871295.345402-.240154-.664185-.541315c-.0305866-.0249724-.0351929-.0700748-.0102165-.10076.0249764-.030689.0700709-.0351575.100634-.010189l.737748.601323c.0173898.0142874.0271929.0357795.0263346.0582717-.00084646.0224882-.012185.0432323-.0306969.0560315l-.481425.334579c-.0124094.00870079-.0267165.0129213-.0406969.0129213z" fill="#000000" data-original="#000000" class=""></path><path id="_462081312" d="m3.88518 4.96593c-.0141457 0-.0283307-.00422047-.0407559-.0129213l-.481425-.334579c-.0185118-.0127992-.0298228-.0335433-.0306969-.0560315-.00084646-.0224921.0088189-.0439843.0262165-.0582677l.737768-.601327c.030689-.0249685.0757677-.0205.100732.010189.0250039.030685.020378.0757874-.0103071.10076l-.664043.541315.345394.240154.620917-.871295c.0228701-.0321811.0675906-.0396299.0997638-.0167717.032185.0229843.0396417.0677087.0167795.0998898l-.662039.928819c-.0139173.0195079-.0359331.0300669-.0583031.0300669z" fill="#000000" data-original="#000000" class=""></path><path id="_462081240" d="m3.56505 5.2256h-.322425c-.0279567 0-.0534488-.0162795-.065126-.041626l-.168075-.365386c-.0165433-.0359094-.00088583-.0783976.0350236-.0949252.0359291-.0165197.0783937-.00086614.0949173.0350394l.149098.323772h.230732l.149055-.323772c.0165512-.0359055.0590197-.0515591.0949252-.0350394.0359567.0165276.0515512.0590157.0350276.0949252l-.168193.365386c-.011685.0253465-.0370472.041626-.0649606.041626z" fill="#000000" data-original="#000000" class=""></path><path id="_462081264" d="m3.12175 6.53844c-.00223228 0-.00450394-.00012205-.00674016-.00025197-.0393346-.00372441-.0682126-.0385118-.0646063-.0778976l.123783-1.32714c.00369291-.0393819.0384724-.0682047.0778583-.0646024.0393898.00372835.0683307.0385157.0646063.0779016l-.123728 1.32713c-.00346457.0370236-.0346732.0648543-.0711732.0648543z" fill="#000000" data-original="#000000" class=""></path><path id="_462080568" d="m3.68816 6.53844c-.0365118 0-.0677323-.0278307-.0712087-.0648543l-.12313-1.31285c-.00368898-.0393898.0252244-.0742992.0644843-.0778976.0395079-.00373228.0742953.0252205.0780276.0644803l.123165 1.31285c.0035748.0393819-.0252756.0742953-.0646457.0780197-.00222047.00012992-.00448031.00025197-.00669291.00025197z" fill="#000000" data-original="#000000" class=""></path><path id="_462080328" d="m3.68816 6.53844c-.0147638 0-.0297165-.00447638-.0423937-.0139173-.0319094-.0233543-.0386339-.0682087-.0152795-.100012l.882882-1.19867-.206646-.45211c-.0153661-.0337913-.00235039-.0736732.0299488-.0920591l.327138-.184504-.183886-.507268c-.0134094-.0371496.00570866-.0782717.0428543-.091689.0371535-.0135433.0782756.0057126.0916929.0428583l.204543.564307c.0119055.0327953-.0017874.0694449-.0322165.0865906l-.322524.182138.196685.430492c.0107913.0236063.00792913.051189-.00748031.072185l-.907673 1.23259c-.0140394.0190079-.035685.0290748-.0576457.0290748z" fill="#000000" data-original="#000000" class=""></path></g></g></g></svg>