<svg xmlns="http://www.w3.org/2000/svg" version="1.1" xmlns:xlink="http://www.w3.org/1999/xlink" xmlns:svgjs="http://svgjs.com/svgjs" width="512" height="512" x="0" y="0" viewBox="0 0 512 512" style="enable-background:new 0 0 512 512" xml:space="preserve" class=""><g><path xmlns="http://www.w3.org/2000/svg" clip-rule="evenodd" d="m128 32c-53.0193 0-96 42.9807-96 96v256c0 53.019 42.9807 96 96 96h256c53.019 0 96-42.981 96-96v-256c0-53.0193-42.981-96-96-96zm48 112c0-13.255-10.745-24-24-24s-24 10.745-24 24v224c0 13.255 10.745 24 24 24s24-10.745 24-24zm64-24c-13.255 0-24 10.745-24 24v224c0 13.255 10.745 24 24 24h32c75.111 0 136-60.889 136-136s-60.889-136-136-136zm24 224v-176h8c48.601 0 88 39.399 88 88s-39.399 88-88 88z" fill="#000000" fill-rule="evenodd" data-original="#000000" class=""></path></g></svg>