<svg xmlns="http://www.w3.org/2000/svg" version="1.1" xmlns:xlink="http://www.w3.org/1999/xlink" xmlns:svgjs="http://svgjs.com/svgjs" width="512" height="512" x="0" y="0" viewBox="0 0 24 24" style="enable-background:new 0 0 512 512" xml:space="preserve" class=""><g><path xmlns="http://www.w3.org/2000/svg" d="m13 14.2929 2.1464-2.1465c.1953-.1952.5119-.1952.7072 0 .1952.1953.1952.5119 0 .7072l-3 3c-.1953.1952-.5119.1952-.7072 0l-2.99995-3c-.19527-.1953-.19527-.5119 0-.7072.19526-.1952.51184-.1952.7071 0l2.14645 2.1465v-10.7929c0-.27614.2239-.5.5-.5s.5.22386.5.5zm5.5-8.2929c-.2761 0-.5-.22386-.5-.5s.2239-.5.5-.5h1c1.3807 0 2.5 1.11929 2.5 2.5v10c0 1.3807-1.1193 2.5-2.5 2.5h-14c-1.38071 0-2.5-1.1193-2.5-2.5v-10c0-1.38071 1.11929-2.5 2.5-2.5h1c.27614 0 .5.22386.5.5s-.22386.5-.5.5h-1c-.82843 0-1.5.67157-1.5 1.5v10c0 .8284.67157 1.5 1.5 1.5h14c.8284 0 1.5-.6716 1.5-1.5v-10c0-.82843-.6716-1.5-1.5-1.5z" fill="#000000" data-original="#000000" class=""></path></g></svg>