<svg xmlns="http://www.w3.org/2000/svg" version="1.1" xmlns:xlink="http://www.w3.org/1999/xlink" xmlns:svgjs="http://svgjs.com/svgjs" width="512" height="512" x="0" y="0" viewBox="0 0 24 24" style="enable-background:new 0 0 512 512" xml:space="preserve" class=""><g><g xmlns="http://www.w3.org/2000/svg"><path d="m21.5 22h-19c-1.378 0-2.5-1.122-2.5-2.5v-13c0-1.378 1.122-2.5 2.5-2.5h6c.276 0 .5.224.5.5s-.224.5-.5.5h-6c-.827 0-1.5.673-1.5 1.5v13c0 .827.673 1.5 1.5 1.5h19c.827 0 1.5-.673 1.5-1.5v-13c0-.827-.673-1.5-1.5-1.5h-6c-.276 0-.5-.224-.5-.5s.224-.5.5-.5h6c1.378 0 2.5 1.122 2.5 2.5v13c0 1.378-1.122 2.5-2.5 2.5z" fill="#000000" data-original="#000000" class=""></path></g><g xmlns="http://www.w3.org/2000/svg"><path d="m7.5 14c-1.378 0-2.5-1.122-2.5-2.5s1.122-2.5 2.5-2.5 2.5 1.122 2.5 2.5-1.122 2.5-2.5 2.5zm0-4c-.827 0-1.5.673-1.5 1.5s.673 1.5 1.5 1.5 1.5-.673 1.5-1.5-.673-1.5-1.5-1.5z" fill="#000000" data-original="#000000" class=""></path></g><g xmlns="http://www.w3.org/2000/svg"><path d="m11.5 19c-.276 0-.5-.224-.5-.5v-1c0-.827-.673-1.5-1.5-1.5h-4c-.827 0-1.5.673-1.5 1.5v1c0 .276-.224.5-.5.5s-.5-.224-.5-.5v-1c0-1.378 1.122-2.5 2.5-2.5h4c1.378 0 2.5 1.122 2.5 2.5v1c0 .276-.224.5-.5.5z" fill="#000000" data-original="#000000" class=""></path></g><g xmlns="http://www.w3.org/2000/svg"><path d="m20.5 11h-6c-.276 0-.5-.224-.5-.5s.224-.5.5-.5h6c.276 0 .5.224.5.5s-.224.5-.5.5z" fill="#000000" data-original="#000000" class=""></path></g><g xmlns="http://www.w3.org/2000/svg"><path d="m20.5 15h-6c-.276 0-.5-.224-.5-.5s.224-.5.5-.5h6c.276 0 .5.224.5.5s-.224.5-.5.5z" fill="#000000" data-original="#000000" class=""></path></g><g xmlns="http://www.w3.org/2000/svg"><path d="m20.5 19h-6c-.276 0-.5-.224-.5-.5s.224-.5.5-.5h6c.276 0 .5.224.5.5s-.224.5-.5.5z" fill="#000000" data-original="#000000" class=""></path></g><g xmlns="http://www.w3.org/2000/svg"><path d="m14.5 7h-5c-.827 0-1.5-.673-1.5-1.5v-2c0-.827.673-1.5 1.5-1.5h5c.827 0 1.5.673 1.5 1.5v2c0 .827-.673 1.5-1.5 1.5zm-5-4c-.276 0-.5.224-.5.5v2c0 .276.224.5.5.5h5c.276 0 .5-.224.5-.5v-2c0-.276-.224-.5-.5-.5z" fill="#000000" data-original="#000000" class=""></path></g></g></svg>