<svg xmlns="http://www.w3.org/2000/svg" version="1.1" xmlns:xlink="http://www.w3.org/1999/xlink" xmlns:svgjs="http://svgjs.com/svgjs" width="512" height="512" x="0" y="0" viewBox="0 0 32 32" style="enable-background:new 0 0 512 512" xml:space="preserve" class=""><g><path xmlns="http://www.w3.org/2000/svg" id="XMLID_246_" d="m27 6h-6v-1c0-1.654-1.346-3-3-3h-4c-1.654 0-3 1.346-3 3v1h-6c-1.103 0-2 .897-2 2v1c0 .552.448 1 1 1h24c.552 0 1-.448 1-1v-1c0-1.103-.897-2-2-2zm-14-1c0-.551.449-1 1-1h4c.551 0 1 .449 1 1v1h-6z" fill="#000000" data-original="#000000" class=""></path><path xmlns="http://www.w3.org/2000/svg" id="XMLID_249_" d="m6 12v15c0 1.654 1.346 3 3 3h14c1.654 0 3-1.346 3-3v-15zm13.707 10.293c.391.391.391 1.023 0 1.414s-1.023.391-1.414 0l-2.293-2.293-2.293 2.293c-.391.391-1.023.391-1.414 0s-.391-1.023 0-1.414l2.293-2.293-2.293-2.293c-.391-.391-.391-1.023 0-1.414s1.023-.391 1.414 0l2.293 2.293 2.293-2.293c.391-.391 1.023-.391 1.414 0s.391 1.023 0 1.414l-2.293 2.293z" fill="#000000" data-original="#000000" class=""></path></g></svg>